<svg id="Layer_1" data-name="Layer 1" xmlns="http://www.w3.org/2000/svg" viewBox="0 0 715.49 334.74"><defs><style>.cls-1{font-size:63.43px;}.cls-1,.cls-5{fill:#0039c6;}.cls-1,.cls-2{font-family:CenturyGothic-Bold, Century Gothic;font-weight:700;}.cls-2{font-size:25px;letter-spacing:0.03em;}.cls-2,.cls-3{fill:#9b9b9b;}.cls-4{fill:#979897;}</style></defs><title>GC ISO</title><text class="cls-1" transform="translate(244.38 238.29)">Geminis</text><text class="cls-2" transform="translate(288.45 273.62)">CONSULTING</text><path class="cls-3" d="M398.15,81.31a42.37,42.37,0,0,0-18.83-11.53c-4.41-1.67-7.75-1.81-12.38-2.2a48.81,48.81,0,0,0-13.15,1.32,44.81,44.81,0,0,0-12.09,5,31,31,0,0,0-7.88,5.92,38.83,38.83,0,0,0-6.67,7.73,57.56,57.56,0,0,0-4,6.77,29.32,29.32,0,0,0-2.21,6.15,43.64,43.64,0,0,0-1.37,8.06h13a27.48,27.48,0,0,1,2.29-8.35,27.1,27.1,0,0,1,4.37-7.1,30.86,30.86,0,0,1,6.34-5.88,26,26,0,0,1,7.75-4,33.06,33.06,0,0,1,8.69-2.05,38.9,38.9,0,0,1,7.3.09,32,32,0,0,1,7,1.38,25.34,25.34,0,0,1,4.13,1.63,40.26,40.26,0,0,1,4.26,2.41l4.1,3-6.95,7a29.24,29.24,0,0,0-6-3.68,25,25,0,0,0-6.56-2,37.09,37.09,0,0,0-7.92,0,37.59,37.59,0,0,0-7.66,2.94A27.43,27.43,0,0,0,347.63,99a21.45,21.45,0,0,0-3.29,5.59,24.47,24.47,0,0,0-1.57,9.82,31.06,31.06,0,0,0,.86,5.37,16.12,16.12,0,0,0,1.76,5,21.38,21.38,0,0,0,4.74,6,25.6,25.6,0,0,0,5,3.27,38.14,38.14,0,0,0,6.78,2.21,55,55,0,0,0,8.32-.11,22.69,22.69,0,0,0,6.91-2.41l4.66-3.25,7.08,7a25,25,0,0,1-5.12,3.79,37.62,37.62,0,0,1-7.13,3.36,26.22,26.22,0,0,1-6.07,1.27,46.75,46.75,0,0,1-8,.22,36.23,36.23,0,0,1-6.86-1.16,63.38,63.38,0,0,1-9.87-4.56,27.69,27.69,0,0,1-6.38-6.08,28,28,0,0,1-3.6-5.57,26.23,26.23,0,0,1-2.12-5.14,45.12,45.12,0,0,1-.93-5.32l-23.35-.05-.13-7.68c0-.08.09-1.77.51-4.69.23-1.79.48-3.32.68-4.47a38.13,38.13,0,0,1,1-4.11,23.21,23.21,0,0,1,1.4-3.72l2.79-6s.82-1.56,1.86-3.1,2.33-3.42,2.22-3.29a31.46,31.46,0,0,1,2.5-3,112.08,112.08,0,0,1,8-8.1q3.87-2.86,7.83-5.25a70.83,70.83,0,0,1,10-4.3,54,54,0,0,1,8.08-2.09,69.06,69.06,0,0,1,7.13-.82,88.68,88.68,0,0,1,10.51.67,76.53,76.53,0,0,1,8,1.91c2.66.94,6.72,2.79,11,4.77a21.08,21.08,0,0,1,2.94,1.65A91.82,91.82,0,0,1,405,74.1Z"/><path class="cls-4" d="M365.11,146.94c-.91,0-1.77,0-2.61-.09a36.61,36.61,0,0,1-7-1.19,62.86,62.86,0,0,1-10-4.61l-.06,0a28.53,28.53,0,0,1-6.54-6.23,29.51,29.51,0,0,1-3.67-5.68,26.6,26.6,0,0,1-2.16-5.24,45,45,0,0,1-.88-4.84L308.75,119l-.14-8.4v0c.08-1.33.27-3,.52-4.73.19-1.49.42-3,.68-4.49a38.17,38.17,0,0,1,1-4.19,23.94,23.94,0,0,1,1.45-3.83l2.78-6c0-.1.87-1.64,1.91-3.2a18.43,18.43,0,0,1,2.26-3.28l0,0,0,0,0,0a25.65,25.65,0,0,1,2.46-3h0a113,113,0,0,1,8.07-8.16l.06-.05c2.62-1.94,5.27-3.71,7.88-5.28a71.83,71.83,0,0,1,10.17-4.36,54.1,54.1,0,0,1,8.18-2.11,69,69,0,0,1,7.21-.83,87.74,87.74,0,0,1,10.64.67,76.25,76.25,0,0,1,8.16,1.93c2.82,1,7.19,3,11.07,4.81a21.84,21.84,0,0,1,3,1.71,90.67,90.67,0,0,1,9.25,7.5l.53.48-7.87,8.25-.5-.53a41.77,41.77,0,0,0-18.54-11.35c-4-1.51-7.11-1.76-11.08-2.07l-1.15-.09a48.38,48.38,0,0,0-12.93,1.31,44.21,44.21,0,0,0-11.88,4.95,30.21,30.21,0,0,0-7.74,5.81,38.08,38.08,0,0,0-6.6,7.64,56.08,56.08,0,0,0-3.94,6.7,28.29,28.29,0,0,0-2.15,6,40.16,40.16,0,0,0-1.28,7.22H332a28.56,28.56,0,0,1,2.27-7.94,27.53,27.53,0,0,1,4.48-7.27,31.65,31.65,0,0,1,6.47-6,26.79,26.79,0,0,1,7.93-4.07A33.82,33.82,0,0,1,362,80.53a39.68,39.68,0,0,1,7.44.09,32.82,32.82,0,0,1,7.1,1.41,25.76,25.76,0,0,1,4.24,1.68,40.62,40.62,0,0,1,4.32,2.45l4.78,3.51-7.95,8-.48-.37a28.33,28.33,0,0,0-5.89-3.6,24.14,24.14,0,0,0-6.41-1.93,36.44,36.44,0,0,0-7.67,0A37,37,0,0,0,354,94.56a26.89,26.89,0,0,0-5.86,4.91,20.64,20.64,0,0,0-3.17,5.4,23.78,23.78,0,0,0-1.52,9.52,30.13,30.13,0,0,0,.84,5.24,15.61,15.61,0,0,0,1.69,4.83,20.79,20.79,0,0,0,4.59,5.8,25,25,0,0,0,4.85,3.17,37.65,37.65,0,0,0,6.57,2.14,54.52,54.52,0,0,0,8.12-.11,21.78,21.78,0,0,0,6.66-2.33l5.09-3.55,8,8-.51.49a25.83,25.83,0,0,1-5.26,3.9,37.88,37.88,0,0,1-7.23,3.4,26.64,26.64,0,0,1-6.24,1.31A53.87,53.87,0,0,1,365.11,146.94Zm-18.92-7.09a61.49,61.49,0,0,0,9.73,4.49,35.26,35.26,0,0,0,6.69,1.13,45.68,45.68,0,0,0,7.86-.22,25.29,25.29,0,0,0,5.91-1.24,36.62,36.62,0,0,0,7-3.29,24.4,24.4,0,0,0,4.49-3.23l-6.16-6.13-4.19,2.92a23.1,23.1,0,0,1-7.17,2.52h-.07a55.94,55.94,0,0,1-8.42.11l-.11,0a39,39,0,0,1-6.91-2.26,26.43,26.43,0,0,1-5.16-3.37,22.2,22.2,0,0,1-4.9-6.19,16.88,16.88,0,0,1-1.83-5.2,31.15,31.15,0,0,1-.87-5.45,25.19,25.19,0,0,1,1.62-10.11,22,22,0,0,1,3.41-5.79,28.29,28.29,0,0,1,6.21-5.2,38.43,38.43,0,0,1,7.85-3l.11,0a37.91,37.91,0,0,1,8.06,0,25.49,25.49,0,0,1,6.79,2,29,29,0,0,1,5.67,3.39l6-6-3.45-2.54a39.48,39.48,0,0,0-4.15-2.35,24.5,24.5,0,0,0-4-1.59A31.47,31.47,0,0,0,369.29,82a38.44,38.44,0,0,0-7.18-.09,32.51,32.51,0,0,0-8.49,2A25.56,25.56,0,0,0,346,87.8a30.38,30.38,0,0,0-6.23,5.77,26.21,26.21,0,0,0-4.27,6.93,26.92,26.92,0,0,0-2.23,8.15l-.06.62H318.82l.07-.76a43.11,43.11,0,0,1,1.4-8.19,29.55,29.55,0,0,1,2.25-6.25,57.39,57.39,0,0,1,4-6.88,39.19,39.19,0,0,1,6.79-7.86,31.29,31.29,0,0,1,8-6,45.53,45.53,0,0,1,12.23-5.09A49.77,49.77,0,0,1,367,66.89l1.17.09c4.08.33,7.3.58,11.42,2.15a43.15,43.15,0,0,1,18.58,11.18L404,74.14a86.32,86.32,0,0,0-8.58-6.91,20.41,20.41,0,0,0-2.85-1.6c-3.85-1.8-8.19-3.79-10.91-4.75A75.17,75.17,0,0,0,373.77,59a86.07,86.07,0,0,0-10.38-.66,67.57,67.57,0,0,0-7,.81,52.72,52.72,0,0,0-8,2.06,70.39,70.39,0,0,0-9.95,4.26c-2.53,1.52-5.13,3.26-7.71,5.16-3,2.81-6.24,6-7.92,8l-.43.52-.06,0c-.47.56-1.3,1.62-1.85,2.34l-.15.2c-.15.2-1.28,1.72-2.17,3.21s-1.83,3.06-1.84,3.07l-2.77,6a22.56,22.56,0,0,0-1.37,3.63,37,37,0,0,0-1,4c-.26,1.51-.48,3-.67,4.45-.25,1.7-.42,3.33-.5,4.59v0l.12,7,23.29.05.07.61a44.72,44.72,0,0,0,.92,5.24,25.06,25.06,0,0,0,2,5l0,.08a28.15,28.15,0,0,0,3.51,5.42A27.14,27.14,0,0,0,346.19,139.86Z"/><path class="cls-5" d="M351,108.54v9.83H411.3a14.73,14.73,0,0,1-.2,3,25.33,25.33,0,0,1-.54,3.29,29.38,29.38,0,0,1-1.07,4,23.44,23.44,0,0,1-1.88,4.47c-.56,1.25-1.34,2.7-2.22,4.24a21.79,21.79,0,0,1-3,4,30.77,30.77,0,0,1-2.86,3.19,24.63,24.63,0,0,1-3.11,3.16,21.86,21.86,0,0,1-3.32,2.71,20.71,20.71,0,0,1-3.33,2.24,18.2,18.2,0,0,1-4.3,2.3,26.92,26.92,0,0,1-4.38,1.7,27.54,27.54,0,0,1-4.35,1.58,31.37,31.37,0,0,1-4.32.93,26.58,26.58,0,0,1-3,.3,34.43,34.43,0,0,1-4.39.14q-2.3-.05-4.57-.33c-1.42-.13-2.88-.33-4.38-.57a42.69,42.69,0,0,1-11.79-4.08,51.1,51.1,0,0,1-4.49-2.7,32.23,32.23,0,0,1-7.09-5.58l-6.73,6.88c1.38,1.38,2.93,2.79,4.61,4.21a37.82,37.82,0,0,0,3.55,2.72,26.27,26.27,0,0,0,3.54,2.19,32.37,32.37,0,0,0,4,2c1.46.7,2.81,1.29,4,1.71,1.69.63,3.25,1.16,4.58,1.51a62,62,0,0,0,9,1.86,49.92,49.92,0,0,0,5,.37c2.31-.05,4.5-.14,6.52-.29,1.59-.17,3.07-.38,4.4-.63a51,51,0,0,0,5.57-1.25,21.41,21.41,0,0,0,4.34-1.64,37.07,37.07,0,0,0,4.57-2c1.7-.84,3.27-1.68,4.63-2.51a18.8,18.8,0,0,0,4.56-3.08,23.27,23.27,0,0,0,3.38-2.79c1.25-1,2.41-2,3.41-3a29.06,29.06,0,0,0,2.62-2.93c1-1.23,2-2.39,2.67-3.39a34.07,34.07,0,0,0,2.53-3.82,28,28,0,0,0,2.13-3.73,24.93,24.93,0,0,0,1.75-3.73,31.48,31.48,0,0,0,1.49-3.86c.46-1.46.86-2.79,1.07-3.77A35.56,35.56,0,0,0,421,122.6a31,31,0,0,0,.39-4.51,37.56,37.56,0,0,0,.27-4.39v-5.16Z"/><path class="cls-5" d="M364.29,170.35a50.31,50.31,0,0,1-5.13-.38,63.07,63.07,0,0,1-9.15-1.88c-1.22-.32-2.74-.82-4.62-1.52-1.08-.39-2.4-1-4-1.73a32.84,32.84,0,0,1-4.07-2,26.92,26.92,0,0,1-3.6-2.23,38.34,38.34,0,0,1-3.59-2.76c-1.8-1.52-3.32-2.91-4.65-4.25l-.48-.48,7.72-7.88.49.54a25.7,25.7,0,0,0,3,2.77,25.26,25.26,0,0,0,3.89,2.67,51.87,51.87,0,0,0,4.48,2.69,43.12,43.12,0,0,0,5.63,2.42,42.43,42.43,0,0,0,5.95,1.58c1.51.25,3,.44,4.33.56s3,.29,4.52.32a33.63,33.63,0,0,0,4.3-.13,26.55,26.55,0,0,0,3-.29,30.43,30.43,0,0,0,4.22-.91,26.73,26.73,0,0,0,4.25-1.54l.11,0a26.39,26.39,0,0,0,4.27-1.65,17.67,17.67,0,0,0,4.19-2.23l.08-.05a19.88,19.88,0,0,0,3.22-2.16l.07-.05a21.26,21.26,0,0,0,3.21-2.63A24.25,24.25,0,0,0,399,144l.06-.06a29.73,29.73,0,0,0,2.79-3.11,21.48,21.48,0,0,0,3-3.89c1-1.73,1.69-3.06,2.18-4.17a22.83,22.83,0,0,0,1.85-4.38,29.18,29.18,0,0,0,1.06-3.9,24.68,24.68,0,0,0,.53-3.22,17.26,17.26,0,0,0,.21-2.21H350.29V107.84H422.4v5.86a37.7,37.7,0,0,1-.27,4.43,31.43,31.43,0,0,1-.4,4.58,36,36,0,0,1-1.17,4.76c-.18.81-.51,2-1.07,3.77a31.81,31.81,0,0,1-1.52,3.93A25.4,25.4,0,0,1,416.2,139a28.46,28.46,0,0,1-2.16,3.77,34,34,0,0,1-2.55,3.85c-.63.91-1.49,2-2.7,3.43a29.27,29.27,0,0,1-2.65,3c-1,.92-2.08,1.9-3.43,3a23.76,23.76,0,0,1-3.42,2.82,19.58,19.58,0,0,1-4.66,3.14c-1.29.79-2.81,1.62-4.65,2.53a36.62,36.62,0,0,1-4.58,2,21.9,21.9,0,0,1-4.44,1.68,51.22,51.22,0,0,1-5.64,1.27c-1.27.24-2.73.45-4.44.63C368.91,170.19,366.77,170.29,364.29,170.35Zm-37.37-17.23c1.18,1.16,2.52,2.37,4.08,3.69a37.24,37.24,0,0,0,3.49,2.68,25.88,25.88,0,0,0,3.47,2.14,32,32,0,0,0,4,1.93c1.62.77,2.9,1.32,3.94,1.7,1.85.69,3.33,1.17,4.52,1.49a61.59,61.59,0,0,0,8.94,1.84,49.22,49.22,0,0,0,5,.37c2.42-.05,4.54-.15,6.45-.29,1.65-.18,3.07-.38,4.32-.62a50.61,50.61,0,0,0,5.5-1.24,20.27,20.27,0,0,0,4.19-1.58l.1,0a35.64,35.64,0,0,0,4.48-1.95c1.85-.91,3.34-1.72,4.6-2.5l.07,0a18.23,18.23,0,0,0,4.4-3l.07-.06a22.42,22.42,0,0,0,3.28-2.7l.06-.06c1.34-1.08,2.44-2,3.37-2.94a28.15,28.15,0,0,0,2.54-2.85c1.21-1.42,2-2.49,2.65-3.37a33.43,33.43,0,0,0,2.5-3.76,28.11,28.11,0,0,0,2.11-3.69,24.73,24.73,0,0,0,1.72-3.68,31.06,31.06,0,0,0,1.48-3.82c.55-1.75.88-2.9,1.06-3.72a35.23,35.23,0,0,0,1.14-4.63,30,30,0,0,0,.38-4.4V118a36.55,36.55,0,0,0,.26-4.31v-4.48H351.67v8.44H412l0,.65a15.23,15.23,0,0,1-.2,3.1,25.57,25.57,0,0,1-.54,3.34,30.18,30.18,0,0,1-1.09,4,23.81,23.81,0,0,1-1.93,4.57c-.5,1.11-1.21,2.48-2.23,4.26a22.6,22.6,0,0,1-3.14,4.11,30.48,30.48,0,0,1-2.86,3.18,25.08,25.08,0,0,1-3.17,3.21,22.2,22.2,0,0,1-3.34,2.73,21.22,21.22,0,0,1-3.37,2.27,18.81,18.81,0,0,1-4.42,2.36,27.33,27.33,0,0,1-4.38,1.7,28.29,28.29,0,0,1-4.41,1.6,31.71,31.71,0,0,1-4.4,1,27.21,27.21,0,0,1-3.08.31,34.93,34.93,0,0,1-4.43.14c-1.56,0-3.12-.15-4.64-.33s-2.87-.32-4.41-.58a43.65,43.65,0,0,1-6.15-1.63,44.58,44.58,0,0,1-5.84-2.51,52.19,52.19,0,0,1-4.57-2.74,26.2,26.2,0,0,1-4-2.77,28,28,0,0,1-2.68-2.39Z"/></svg>