<svg id="Layer_1" data-name="Layer 1" xmlns="http://www.w3.org/2000/svg" viewBox="0 0 507.87 515.46"><defs><style>.cls-1{fill:none;stroke:#8d8d8d;stroke-miterlimit:10;stroke-width:14px;}</style></defs><title>Solucion02</title><rect class="cls-1" x="74.08" y="231.92" width="359.54" height="276.54" rx="13.91"/><rect class="cls-1" x="169.93" y="422.2" width="179.77" height="56.41" rx="12.54"/><rect class="cls-1" x="169.93" y="346.07" width="177.94" height="52.28" rx="13.92"/><rect class="cls-1" x="169.93" y="269.94" width="177.94" height="56.41" rx="13.8"/><rect class="cls-1" x="201.57" y="295.62" width="9.63" height="9.63"/><rect class="cls-1" x="234.13" y="295.62" width="83.01" height="9.63"/><rect class="cls-1" x="202.11" y="370.37" width="9.63" height="9.63"/><rect class="cls-1" x="234.8" y="445.58" width="83.01" height="9.63"/><rect class="cls-1" x="234.4" y="370.37" width="83.01" height="9.63"/><rect class="cls-1" x="202.57" y="445.52" width="9.63" height="9.63"/><polygon class="cls-1" points="29.14 274.8 252.1 51.84 476.13 275.86 497.97 254.02 253.85 9.9 9.73 254.02 29.14 274.8"/><rect class="cls-1" x="197.44" y="326.35" width="125.2" height="19.72"/><rect class="cls-1" x="197.44" y="398.35" width="125.2" height="23.85"/></svg>