<svg id="Layer_1" data-name="Layer 1" xmlns="http://www.w3.org/2000/svg" viewBox="0 0 715.49 242.31"><defs><style>.cls-1,.cls-4{fill:#9b9b9b;}.cls-1{stroke:#979897;}.cls-1,.cls-2{stroke-miterlimit:10;stroke-width:2px;}.cls-2,.cls-3{fill:#0039c6;}.cls-2{stroke:#0039c6;}.cls-3{font-size:73.36px;}.cls-3,.cls-4{font-family:CenturyGothic-Bold, Century Gothic;font-weight:700;}.cls-4{font-size:25px;letter-spacing:0.03em;}</style></defs><title>GC ISO</title><path class="cls-1" d="M237.78,84.46A40.64,40.64,0,0,0,219.72,73.4c-4.23-1.6-7.43-1.74-11.87-2.11a46.82,46.82,0,0,0-12.61,1.27,43,43,0,0,0-11.59,4.82,29.73,29.73,0,0,0-7.56,5.68,37.25,37.25,0,0,0-6.4,7.42A55.21,55.21,0,0,0,165.85,97a28.12,28.12,0,0,0-2.12,5.9,41.86,41.86,0,0,0-1.32,7.73h12.51a26.36,26.36,0,0,1,2.19-8,26,26,0,0,1,4.19-6.81,29.6,29.6,0,0,1,6.09-5.64,25,25,0,0,1,7.44-3.81,31.71,31.71,0,0,1,8.33-2,37.31,37.31,0,0,1,7,.09,30.69,30.69,0,0,1,6.68,1.32,24.31,24.31,0,0,1,4,1.57,38.61,38.61,0,0,1,4.09,2.32l3.93,2.89-6.66,6.67a28.05,28.05,0,0,0-5.79-3.53,24,24,0,0,0-6.3-1.9,35.58,35.58,0,0,0-7.59,0,36.05,36.05,0,0,0-7.35,2.82,26.31,26.31,0,0,0-5.81,4.86,20.58,20.58,0,0,0-3.16,5.36,23.47,23.47,0,0,0-1.51,9.42,29.79,29.79,0,0,0,.82,5.15,15.46,15.46,0,0,0,1.68,4.79,20.51,20.51,0,0,0,4.54,5.75,24.56,24.56,0,0,0,4.79,3.13,36.58,36.58,0,0,0,6.51,2.12,52.77,52.77,0,0,0,8-.1,21.76,21.76,0,0,0,6.63-2.32l4.47-3.12,6.79,6.76A24,24,0,0,1,224,142a36.08,36.08,0,0,1-6.84,3.22,25.15,25.15,0,0,1-5.82,1.22,44.84,44.84,0,0,1-7.66.21,34.75,34.75,0,0,1-6.58-1.11,60.8,60.8,0,0,1-9.47-4.37,26.56,26.56,0,0,1-6.12-5.83A26.84,26.84,0,0,1,178,130a25.16,25.16,0,0,1-2-4.93,43.28,43.28,0,0,1-.89-5.1l-22.4-.05-.12-7.36c0-.07.09-1.7.49-4.5.22-1.72.46-3.18.65-4.29a36.57,36.57,0,0,1,1-3.94A22.27,22.27,0,0,1,156,96.25l2.67-5.75s.79-1.5,1.78-3,2.23-3.28,2.13-3.15a30.18,30.18,0,0,1,2.39-2.9,107.51,107.51,0,0,1,7.68-7.77q3.71-2.75,7.51-5a67.94,67.94,0,0,1,9.63-4.13,51.84,51.84,0,0,1,7.75-2,66.24,66.24,0,0,1,6.84-.78,85.06,85.06,0,0,1,10.09.64,73.4,73.4,0,0,1,7.72,1.83c2.55.9,6.45,2.68,10.52,4.58a20.22,20.22,0,0,1,2.82,1.58,88.07,88.07,0,0,1,8.8,7.14Z"/><path class="cls-2" d="M192.54,110.57V120h57.86a14.13,14.13,0,0,1-.19,2.83,24.3,24.3,0,0,1-.51,3.16,28.18,28.18,0,0,1-1,3.8,22.49,22.49,0,0,1-1.81,4.29c-.54,1.2-1.29,2.59-2.13,4.07a20.9,20.9,0,0,1-2.91,3.81,29.51,29.51,0,0,1-2.74,3.06,23.63,23.63,0,0,1-3,3,21,21,0,0,1-3.18,2.6,19.86,19.86,0,0,1-3.19,2.15,17.46,17.46,0,0,1-4.12,2.2,25.82,25.82,0,0,1-4.2,1.63,26.42,26.42,0,0,1-4.17,1.51,30.09,30.09,0,0,1-4.14.9,25.5,25.5,0,0,1-2.89.29,33,33,0,0,1-4.21.13q-2.21-.05-4.38-.31c-1.36-.13-2.76-.31-4.2-.55a40.95,40.95,0,0,1-11.31-3.91,49,49,0,0,1-4.31-2.59,30.92,30.92,0,0,1-6.81-5.35l-6.45,6.59c1.32,1.33,2.81,2.68,4.42,4a36.28,36.28,0,0,0,3.4,2.61,25.2,25.2,0,0,0,3.39,2.1,31.05,31.05,0,0,0,3.86,1.88c1.4.67,2.7,1.24,3.81,1.64,1.62.6,3.12,1.11,4.39,1.45a59.47,59.47,0,0,0,8.67,1.78,47.89,47.89,0,0,0,4.81.36c2.22,0,4.32-.14,6.25-.28,1.52-.16,2.94-.36,4.22-.6a48.91,48.91,0,0,0,5.34-1.2,20.54,20.54,0,0,0,4.17-1.58,35.56,35.56,0,0,0,4.38-1.91c1.63-.8,3.13-1.61,4.44-2.41a18,18,0,0,0,4.38-3,22.32,22.32,0,0,0,3.24-2.67c1.2-1,2.31-1.93,3.27-2.86a27.87,27.87,0,0,0,2.51-2.81c1-1.18,1.89-2.29,2.56-3.26a32.68,32.68,0,0,0,2.43-3.67,26.88,26.88,0,0,0,2-3.58,23.91,23.91,0,0,0,1.67-3.58,30.2,30.2,0,0,0,1.43-3.7c.44-1.4.82-2.68,1-3.61a34.11,34.11,0,0,0,1.1-4.47,29.73,29.73,0,0,0,.38-4.33,36,36,0,0,0,.25-4.21v-5Z"/><text class="cls-3" transform="translate(288.45 124.6)">Geminis</text><text class="cls-4" transform="translate(413.68 160.38)">CONSULTING</text></svg>